<?xml version="1.0" standalone="no"?>
<!DOCTYPE svg PUBLIC "-//W3C//DTD SVG 20010904//EN"
 "http://www.w3.org/TR/2001/REC-SVG-20010904/DTD/svg10.dtd">
<svg version="1.0" xmlns="http://www.w3.org/2000/svg"
 width="1250.000000pt" height="1250.000000pt" viewBox="0 0 1250.000000 1250.000000"
 preserveAspectRatio="xMidYMid meet">
<metadata>
Created by potrace 1.14, written by Peter Selinger 2001-2017
</metadata>
<g transform="translate(0.000000,1250.000000) scale(0.100000,-0.100000)"
fill="#000000" stroke="none">
<path d="M4435 11443 c-16 -2 -37 -7 -45 -10 -8 -3 -23 -8 -33 -9 -53 -11
-191 -100 -225 -146 -7 -9 -18 -23 -25 -30 -23 -24 -76 -116 -70 -122 4 -3 2
-6 -4 -6 -6 0 -14 -17 -18 -37 -5 -21 -10 -45 -13 -53 -2 -8 -5 -54 -7 -102
-5 -160 46 -282 167 -399 48 -47 168 -114 220 -123 15 -2 32 -8 38 -11 20 -12
174 -5 234 10 33 9 86 30 119 47 59 32 177 135 177 155 0 6 12 22 26 36 21 21
30 24 45 16 13 -7 19 -6 19 1 0 6 5 8 11 5 15 -10 99 -12 99 -3 0 4 10 4 23
-1 12 -5 32 -5 45 0 12 5 22 5 22 1 0 -4 15 -7 34 -7 19 0 32 3 29 7 -2 5 6 4
19 0 26 -9 60 -8 77 2 6 4 11 4 11 -1 0 -4 21 -7 47 -5 27 1 53 3 58 2 6 0 71
-2 145 -4 94 -3 146 -9 172 -20 47 -20 97 -84 160 -203 12 -24 26 -43 30 -43
4 0 8 -5 8 -11 0 -7 26 -57 58 -113 32 -56 61 -108 64 -118 6 -15 -60 -16
-910 -17 -504 -1 -960 -3 -1012 -5 -133 -5 -172 -19 -215 -75 -20 -25 -35 -50
-34 -55 0 -5 -4 -12 -9 -15 -10 -6 -39 -58 -138 -241 -34 -63 -61 -117 -59
-120 3 -6 2113 -5 2175 1 20 2 43 0 53 -4 9 -3 17 -3 17 1 0 4 39 7 88 6 294
-5 433 -83 539 -301 92 -190 139 -218 376 -227 48 -2 90 1 93 6 3 4 11 5 17 1
12 -8 158 -5 166 3 9 9 9 64 0 64 -5 0 -8 3 -7 8 1 4 -5 18 -14 32 -36 56
-208 363 -208 371 0 5 -4 9 -9 9 -5 0 -11 8 -14 18 -4 9 -20 40 -36 67 -17 28
-38 66 -48 85 -9 19 -19 37 -22 40 -9 7 -29 41 -45 75 -8 17 -28 51 -43 77
-70 117 -123 211 -123 219 0 5 -4 9 -8 9 -4 0 -13 12 -19 28 -7 15 -24 48 -40
74 -91 153 -153 261 -153 269 0 5 -3 9 -8 9 -4 0 -16 20 -27 45 -11 25 -23 45
-26 45 -3 0 -23 34 -44 75 -22 41 -43 75 -47 75 -4 0 -8 4 -8 9 0 12 -140 250
-167 285 -12 15 -48 38 -79 51 -65 26 -75 27 -713 29 -387 1 -404 2 -415 20
-30 53 -97 122 -156 162 -44 30 -140 77 -140 69 0 -3 -12 0 -27 6 -29 11 -166
19 -218 12z m217 -231 c55 -24 128 -93 149 -140 8 -18 18 -32 22 -32 5 0 5 -4
2 -10 -3 -5 -3 -16 1 -22 15 -24 19 -96 9 -148 -4 -19 -8 -41 -8 -47 0 -7 -4
-13 -9 -13 -4 0 -7 -3 -6 -7 4 -15 -25 -58 -66 -99 -49 -49 -111 -83 -169 -90
-23 -4 -44 -7 -47 -7 -4 -1 -90 12 -120 17 -3 1 -25 13 -50 28 -61 35 -93 71
-129 142 -27 53 -30 69 -28 140 2 93 24 148 85 213 43 46 72 65 133 87 59 21
168 16 231 -12z"/>
<path d="M8275 11270 c-36 -9 -67 -14 -70 -12 -3 3 -5 0 -5 -6 0 -7 -7 -12
-16 -12 -47 0 -244 -166 -244 -206 0 -7 -4 -14 -8 -14 -10 0 -46 -87 -62 -149
-23 -90 -9 -263 26 -318 8 -12 14 -29 14 -38 0 -8 5 -15 10 -15 6 0 10 -5 10
-11 0 -12 51 -80 85 -114 50 -49 169 -121 212 -128 10 -1 23 -5 28 -9 6 -3 35
-9 64 -12 30 -4 56 -8 57 -9 1 -1 17 -31 36 -67 20 -36 48 -87 63 -115 136
-241 205 -368 205 -375 0 -5 3 -10 8 -12 19 -8 70 -135 77 -189 3 -32 -58
-159 -139 -288 -15 -22 -26 -45 -26 -51 0 -5 -4 -10 -10 -10 -5 0 -10 -7 -10
-15 0 -8 -3 -15 -7 -15 -5 0 -17 -18 -27 -40 -11 -22 -23 -40 -28 -40 -5 0 -6
-4 -3 -10 3 -5 1 -10 -4 -10 -6 0 -11 -7 -11 -15 0 -27 -20 -16 -37 20 -9 19
-20 35 -25 35 -4 0 -8 5 -8 10 0 6 -19 43 -41 83 -57 99 -126 222 -155 277
-11 19 -23 38 -29 42 -7 5 -7 8 0 8 7 0 7 3 0 8 -12 9 -44 61 -52 85 -3 9 -10
17 -15 17 -5 0 -7 4 -4 9 3 5 -2 19 -12 32 -11 13 -29 45 -42 72 -13 26 -28
47 -33 47 -6 0 -8 3 -5 6 4 3 -25 60 -63 126 -38 66 -69 124 -69 129 0 5 -4 9
-9 9 -5 0 -12 11 -15 24 -3 14 -12 31 -19 38 -6 7 -22 31 -34 53 -20 38 -32
61 -91 165 -14 25 -45 78 -69 118 -24 41 -43 75 -43 78 0 4 -83 148 -100 174
-6 8 -13 22 -17 30 -14 32 -101 110 -124 111 -13 1 -37 3 -54 5 -28 3 -251 4
-406 1 l-66 -1 34 -61 c18 -33 36 -67 40 -75 4 -8 35 -64 70 -124 35 -60 63
-110 63 -112 0 -2 15 -29 34 -61 33 -58 56 -98 124 -223 20 -36 43 -78 53 -95
10 -16 29 -51 42 -76 14 -25 35 -63 47 -85 13 -21 35 -61 50 -89 50 -92 82
-150 121 -217 22 -36 39 -71 39 -77 0 -6 4 -11 9 -11 5 0 13 -10 17 -22 4 -13
17 -39 29 -58 12 -19 33 -55 47 -80 57 -101 71 -126 87 -150 9 -14 22 -36 29
-50 7 -14 24 -43 37 -65 14 -22 28 -48 32 -57 3 -10 9 -18 14 -18 5 0 9 -5 9
-11 0 -6 14 -30 30 -55 17 -24 27 -44 23 -44 -4 0 -3 -4 2 -8 28 -20 145 -244
145 -277 0 -7 4 -16 8 -19 5 -3 9 -19 10 -35 0 -16 6 -40 12 -52 9 -16 9 -20
0 -14 -9 5 -10 2 -3 -11 11 -23 9 -52 -7 -128 -13 -66 -51 -141 -109 -219 -83
-112 -94 -200 -40 -318 18 -41 43 -91 56 -111 13 -21 23 -42 23 -48 0 -5 5
-10 11 -10 5 0 7 -4 4 -10 -3 -5 -2 -10 2 -10 5 0 17 -17 28 -37 11 -21 22
-40 25 -43 3 -3 13 -19 21 -37 14 -29 17 -31 39 -20 16 8 58 68 112 157 48 80
92 150 98 157 5 7 10 14 10 17 0 3 34 62 75 131 41 69 75 129 75 135 0 5 4 10
9 10 5 0 13 10 17 23 4 12 10 24 14 27 4 3 17 23 29 45 11 22 31 57 43 77 54
88 124 206 146 247 13 24 28 49 33 55 19 22 89 145 89 155 0 6 5 11 10 11 6 0
10 4 10 9 0 13 73 135 82 139 5 2 8 8 8 14 0 6 14 34 32 62 29 48 39 65 87
150 18 32 49 84 78 131 46 76 105 184 102 188 -2 2 1 10 7 18 6 8 10 28 8 44
-10 97 -10 97 -114 285 -26 47 -64 117 -85 155 -47 85 -92 165 -105 185 -5 8
-16 29 -25 45 -8 17 -19 37 -25 45 -5 8 -44 76 -85 149 l-76 135 25 50 c30 61
36 77 52 136 9 34 12 193 4 205 -3 6 -7 19 -8 31 -1 28 -50 143 -68 161 -8 8
-14 18 -14 23 0 4 -25 33 -56 64 -132 131 -322 188 -489 146z m155 -202 c0 -4
7 -5 15 -2 8 4 22 1 30 -6 8 -7 15 -10 15 -6 0 11 62 -24 106 -59 22 -19 55
-61 74 -96 29 -56 33 -72 34 -144 1 -66 -3 -89 -25 -135 -57 -122 -172 -192
-306 -186 -38 2 -82 10 -99 19 -17 9 -34 13 -37 10 -4 -3 -9 2 -13 11 -3 9
-12 16 -19 16 -22 0 -110 110 -120 150 -1 3 -5 16 -8 30 -29 114 3 230 86 310
64 60 91 73 187 88 58 10 80 10 80 0z"/>
<path d="M3245 9375 c-47 -17 -76 -35 -108 -69 -33 -35 -387 -563 -387 -577 0
-5 -4 -9 -10 -9 -5 0 -10 -5 -10 -10 0 -10 -48 -89 -60 -100 -4 -3 -30 -45
-60 -95 -30 -49 -55 -92 -57 -94 -1 -2 -37 -5 -80 -6 -43 -1 -100 -8 -128 -15
-71 -18 -173 -73 -225 -123 -50 -47 -100 -110 -100 -126 0 -6 -4 -11 -9 -11
-4 0 -21 -37 -36 -82 -21 -65 -27 -102 -27 -168 1 -47 3 -92 5 -100 20 -76 33
-112 55 -154 25 -46 36 -62 89 -122 31 -36 148 -111 199 -128 141 -46 277 -39
402 21 71 33 94 49 151 103 59 57 111 145 138 234 16 51 25 202 15 221 -3 5
-7 20 -8 33 -2 14 -6 32 -10 41 -9 19 -9 19 -19 54 -6 22 -3 33 14 51 11 12
21 27 21 33 0 6 3 13 8 15 10 4 92 137 92 149 0 6 5 7 10 4 6 -3 10 -1 10 5 0
19 271 423 307 458 19 18 46 38 61 43 35 14 182 19 182 6 0 -5 6 -4 13 2 8 6
16 8 19 6 3 -3 43 -8 90 -10 106 -5 262 -16 265 -19 1 -1 -30 -51 -70 -112
-137 -208 -202 -309 -206 -319 -2 -5 -7 -12 -10 -15 -4 -3 -27 -36 -50 -75
-24 -38 -48 -71 -53 -73 -4 -2 -8 -8 -8 -12 0 -12 -209 -333 -222 -341 -5 -3
-9 -10 -9 -15 0 -5 -36 -65 -81 -134 -126 -192 -221 -340 -254 -392 -16 -27
-33 -48 -37 -48 -5 0 -5 -4 -2 -10 3 -5 1 -10 -4 -10 -6 0 -11 -5 -11 -12 0
-6 -6 -19 -14 -27 -19 -22 -77 -131 -69 -131 3 0 1 -6 -5 -13 -18 -21 -6 -88
27 -159 17 -36 31 -71 31 -77 0 -6 3 -11 8 -11 4 0 15 -17 24 -37 10 -21 34
-67 54 -103 20 -36 47 -86 61 -113 l25 -47 17 22 c10 13 26 38 36 56 11 17 23
32 27 32 4 0 8 5 8 10 0 12 72 124 83 128 4 2 7 7 7 12 0 8 84 136 105 160 8
8 14 18 14 23 1 7 52 88 61 97 3 3 21 30 39 60 19 30 41 60 50 67 9 7 13 13 9
13 -6 0 120 199 149 235 21 26 140 212 146 228 3 9 11 17 16 17 5 0 12 11 15
25 4 14 11 25 16 25 6 0 10 4 10 9 0 8 132 214 157 246 4 6 17 26 27 45 11 19
40 67 65 105 25 39 50 78 56 87 70 117 92 154 133 219 95 153 167 231 263 282
89 48 139 58 256 51 181 -12 234 -10 283 13 42 21 110 83 110 103 0 4 4 10 9
12 11 4 171 255 171 268 0 6 5 10 10 10 16 0 12 26 -6 41 -20 16 -26 17 -144
23 -52 3 -95 5 -95 6 0 0 -47 3 -105 6 -194 9 -255 13 -255 14 0 1 -40 3 -90
5 -99 5 -236 12 -390 20 -55 3 -136 8 -180 10 -44 2 -80 4 -80 5 0 1 -40 3
-90 5 -98 4 -247 11 -420 21 -60 3 -151 7 -200 8 -50 1 -96 5 -103 9 -7 5 -12
3 -12 -3 0 -6 -5 -8 -11 -4 -18 11 -72 11 -104 -1z m-633 -1198 c110 -52 177
-152 183 -275 3 -63 -11 -131 -30 -144 -5 -4 -6 -8 -2 -8 12 0 -31 -60 -70
-98 -171 -162 -455 -83 -522 146 -23 78 -17 162 15 224 8 15 14 31 14 35 0 5
26 32 58 61 99 91 236 114 354 59z"/>
<path d="M9366 8605 c-9 -19 -21 -35 -26 -35 -6 0 -10 -6 -10 -13 0 -7 -50
-93 -111 -192 -61 -99 -147 -241 -192 -315 -45 -74 -84 -137 -87 -140 -4 -3
-10 -12 -13 -20 -4 -8 -15 -28 -26 -45 -10 -16 -59 -97 -110 -178 -50 -82 -91
-153 -91 -158 0 -5 -4 -9 -10 -9 -5 0 -10 -7 -10 -15 0 -8 -4 -15 -10 -15 -5
0 -10 -5 -10 -10 0 -6 -25 -50 -55 -99 -30 -49 -55 -94 -55 -100 0 -6 -4 -11
-8 -11 -5 0 -17 -18 -27 -40 -10 -22 -22 -40 -27 -40 -4 0 -8 -6 -8 -14 0 -8
-6 -21 -12 -28 -15 -16 -35 -49 -56 -93 -9 -16 -28 -49 -44 -72 -15 -23 -28
-44 -28 -47 0 -3 -14 -29 -31 -58 -42 -71 -66 -112 -102 -178 -17 -30 -33 -57
-36 -60 -3 -3 -12 -17 -20 -32 -24 -47 -130 -156 -184 -189 -101 -62 -189 -74
-407 -56 -50 4 -127 -18 -172 -49 -21 -15 -63 -65 -98 -118 -33 -50 -63 -95
-67 -101 -5 -5 -16 -26 -25 -45 -10 -19 -31 -59 -48 -89 l-31 -54 23 -15 c16
-11 48 -17 103 -18 163 -3 636 -15 815 -19 227 -6 546 -13 998 -20 331 -6 345
-5 386 14 23 11 58 38 77 58 36 38 139 196 139 212 0 5 4 11 8 13 4 2 26 32
47 68 21 36 55 90 74 120 20 30 34 58 33 63 -1 4 2 7 8 7 5 0 10 4 10 8 0 8
60 110 121 207 14 22 29 47 33 55 26 55 59 97 76 97 49 1 195 44 210 62 3 3
17 12 31 20 64 33 156 141 197 232 33 75 41 111 43 204 4 151 -45 272 -159
393 -22 23 -43 42 -46 42 -3 0 -24 13 -48 28 -24 16 -56 33 -73 39 -16 6 -39
14 -50 18 -65 24 -205 25 -290 2 -38 -10 -72 -23 -73 -28 -2 -5 -8 -7 -13 -3
-5 3 -9 0 -9 -6 0 -6 -4 -9 -9 -6 -5 3 -14 -1 -21 -9 -7 -8 -18 -15 -24 -15
-36 0 -190 -184 -201 -238 -2 -12 -8 -30 -14 -40 -15 -28 -23 -86 -25 -172 -2
-88 22 -178 65 -252 30 -50 29 -65 -4 -89 -5 -3 -7 -8 -6 -10 2 -2 -22 -46
-54 -96 -31 -51 -57 -97 -57 -102 0 -5 -4 -11 -8 -13 -5 -1 -24 -29 -43 -62
-64 -109 -71 -121 -78 -126 -3 -3 -15 -22 -26 -43 -26 -50 -98 -125 -132 -138
-26 -10 -549 -7 -558 3 -3 2 41 78 96 169 56 90 109 178 119 194 14 25 69 115
127 210 7 11 16 28 19 38 3 9 10 17 14 17 4 0 10 8 13 18 4 9 16 34 29 54 30
47 150 244 163 266 6 10 57 95 115 190 58 95 113 187 123 205 10 17 25 44 35
59 9 15 52 86 94 158 77 130 108 200 108 245 0 22 -88 205 -130 270 -11 17
-24 39 -30 50 -5 11 -21 38 -35 60 -14 22 -28 48 -31 58 -4 9 -10 17 -15 17
-5 0 -8 5 -6 11 6 28 -22 16 -37 -16z m729 -1024 c6 -3 18 -7 28 -8 65 -10
155 -92 192 -175 94 -209 -54 -444 -283 -453 -37 -1 -71 1 -77 5 -5 4 -23 10
-39 14 -69 17 -157 102 -192 186 -38 89 -15 240 46 311 64 73 90 92 165 115
41 12 142 16 160 5z"/>
<path d="M4450 7715 c0 -6 -10 -15 -22 -20 -12 -6 -49 -54 -82 -107 -34 -54
-67 -105 -74 -115 -7 -10 -35 -54 -62 -98 -27 -44 -54 -87 -60 -95 -6 -8 -46
-71 -90 -140 -44 -69 -83 -130 -88 -136 -5 -5 -15 -21 -22 -35 -7 -13 -16 -26
-19 -29 -3 -3 -15 -22 -26 -42 -11 -21 -23 -38 -27 -38 -5 0 -8 -4 -8 -9 0 -5
-41 -74 -91 -152 -50 -79 -104 -164 -120 -189 -16 -25 -32 -49 -36 -55 -5 -5
-26 -39 -47 -75 -22 -36 -43 -66 -48 -68 -4 -2 -8 -7 -8 -12 0 -5 -55 -95
-121 -202 -164 -260 -158 -251 -166 -268 -3 -8 -10 -17 -15 -20 -14 -10 -16
-90 -4 -143 12 -50 192 -419 208 -425 4 -2 8 -10 8 -17 0 -8 14 -37 30 -65 17
-28 30 -57 30 -65 0 -8 4 -15 8 -15 5 0 14 -16 22 -35 8 -19 18 -35 24 -35 5
0 6 -3 3 -7 -4 -3 2 -20 12 -37 10 -17 46 -83 79 -147 49 -94 58 -119 49 -135
-5 -10 -13 -21 -17 -24 -9 -7 -35 -74 -32 -82 1 -5 -2 -8 -7 -8 -5 0 -12 -17
-17 -37 -7 -35 -9 -54 -14 -133 -3 -42 10 -130 24 -162 4 -9 8 -22 10 -30 1
-7 6 -20 11 -28 5 -8 10 -20 11 -27 3 -21 48 -77 110 -139 60 -58 165 -120
224 -131 14 -2 41 -7 60 -11 32 -7 146 -6 180 1 35 7 135 41 140 47 3 4 26 19
53 34 43 26 157 139 157 157 0 4 10 25 22 46 12 20 24 42 25 48 1 5 10 39 19
75 30 121 6 275 -60 383 -15 23 -32 51 -39 62 -6 11 -17 23 -22 27 -6 3 -25
20 -42 37 -67 63 -174 115 -265 127 -26 4 -52 12 -58 19 -13 16 -149 277 -313
600 -51 101 -70 161 -63 200 5 29 61 135 107 203 16 24 29 47 29 53 0 5 3 9 8
9 4 0 18 20 32 45 14 25 27 45 30 45 3 0 14 17 25 38 11 20 23 39 26 42 3 3
12 16 18 29 15 28 19 25 63 -59 72 -134 127 -238 179 -340 30 -58 57 -106 61
-108 5 -2 8 -12 8 -23 0 -10 5 -19 11 -19 5 0 8 -4 5 -9 -4 -5 -3 -11 1 -13 5
-1 47 -79 95 -173 48 -93 107 -208 132 -255 25 -47 67 -128 93 -180 27 -52 50
-97 53 -100 3 -3 16 -27 30 -55 14 -27 28 -52 33 -53 4 -2 5 -8 1 -13 -3 -5 0
-9 6 -9 6 0 9 -4 6 -9 -4 -5 -2 -11 2 -13 4 -1 22 -32 40 -68 99 -202 172
-313 220 -331 48 -18 351 -34 482 -25 28 1 52 4 54 4 3 1 -19 48 -48 105 -29
56 -97 190 -152 297 -54 107 -102 197 -105 200 -3 3 -19 32 -34 65 -16 33 -33
62 -37 63 -4 2 -8 11 -8 21 0 9 -4 21 -9 27 -5 5 -60 108 -122 229 -62 121
-134 261 -160 310 -26 50 -65 124 -87 165 -21 41 -51 98 -67 125 -15 28 -42
77 -60 110 -42 77 -93 169 -122 220 -88 155 -144 285 -156 362 -3 17 -8 37
-12 42 -3 6 -1 11 5 11 6 0 8 5 4 12 -19 31 10 163 53 238 15 25 45 70 69 100
23 30 49 70 58 87 23 46 32 145 16 185 -31 81 -80 184 -118 248 -12 19 -33 55
-46 80 -33 59 -46 77 -46 65z m-177 -3033 c159 -79 224 -270 145 -429 -12 -24
-25 -43 -30 -43 -4 0 -8 -5 -8 -11 0 -15 -57 -64 -100 -88 -98 -51 -225 -46
-318 13 -54 34 -108 100 -131 160 -40 104 -14 244 61 326 96 107 251 136 381
72z"/>
<path d="M5259 6014 c-18 -22 -6 -50 114 -274 22 -41 61 -113 86 -160 25 -47
58 -107 72 -135 15 -27 49 -93 76 -145 26 -52 50 -97 53 -100 3 -3 16 -25 29
-50 13 -25 48 -92 78 -150 30 -58 63 -118 73 -135 9 -16 39 -70 65 -120 27
-49 61 -112 75 -140 15 -27 51 -94 79 -149 29 -54 84 -155 122 -223 38 -69 69
-127 69 -129 0 -6 64 -108 75 -120 17 -17 86 -51 120 -58 31 -7 175 -16 305
-19 41 -1 81 -6 88 -10 6 -5 12 -4 12 0 0 5 17 7 38 6 39 -3 324 -13 476 -16
l88 -2 20 -40 c12 -22 25 -41 29 -43 5 -2 9 -9 9 -16 0 -12 76 -95 121 -131
76 -62 197 -103 314 -107 43 -1 137 12 156 23 9 4 19 5 23 2 3 -3 6 -2 6 4 0
5 6 10 13 10 28 0 131 68 183 121 57 57 119 157 128 204 2 15 8 32 11 38 4 6
8 34 10 63 2 29 5 54 6 57 1 3 0 10 -1 15 -1 6 -4 34 -5 62 -2 29 -7 58 -11
65 -4 7 -9 21 -10 33 -2 22 -57 126 -83 158 -77 94 -191 168 -297 193 -41 9
-192 10 -236 2 -94 -19 -199 -79 -272 -154 -44 -46 -48 -48 -101 -49 -30 0
-55 3 -55 7 0 4 -11 3 -24 -2 -13 -5 -26 -7 -29 -4 -5 5 -237 14 -424 17 -57
1 -103 4 -103 7 0 3 -21 5 -48 5 -59 0 -121 20 -148 48 -24 26 -81 123 -154
262 -28 55 -56 105 -60 110 -5 6 -9 15 -10 20 -1 6 -11 27 -21 47 -10 21 -19
40 -19 43 0 5 101 3 485 -10 246 -8 429 -14 625 -20 102 -3 253 -8 335 -10
379 -12 571 -13 615 -1 35 9 52 22 87 66 24 30 48 60 52 66 5 6 17 26 26 45
10 19 21 36 24 39 3 3 17 25 30 50 14 25 29 48 35 52 6 4 7 8 3 8 -5 0 1 13
12 29 12 16 21 34 21 39 0 6 3 12 8 14 9 4 45 68 40 73 -3 3 -178 11 -708 30
-91 3 -214 8 -275 10 -481 18 -729 25 -1110 30 -181 2 -341 7 -355 10 -14 3
-41 8 -60 11 -51 9 -147 50 -189 81 -83 62 -121 116 -186 268 -33 75 -106 147
-168 164 -24 7 -71 13 -105 14 -34 1 -62 4 -62 7 0 11 -281 6 -291 -6z m2746
-1617 c50 -7 85 -19 85 -29 0 -5 5 -6 10 -3 6 3 10 1 10 -4 0 -6 6 -11 14 -11
19 0 90 -80 115 -129 62 -121 31 -284 -72 -378 -68 -62 -112 -78 -213 -78 -62
0 -96 4 -107 14 -10 7 -17 11 -17 7 0 -9 -82 43 -105 68 -67 70 -94 142 -89
238 4 88 7 108 14 108 3 0 12 15 19 33 13 27 69 89 113 122 16 13 100 41 111
37 4 -1 7 2 7 6 0 7 45 7 105 -1z"/>
</g>
</svg>
